<svg x="0" y="0" xmlns="http://www.w3.org/2000/svg" viewBox="0 0 512.001 512.001" style="enable-background:new 0 0 512.001 512.001;" xml:space="preserve"><g id="Flat"><path d="m216 372.027h104v59.973h-104z" fill="#1a1e38"/><path d="m202.97 397.16992a70.54624 70.54624 0 0 1 -48.79 18.83008h-52.36c-64.14 0-96.27-77.55-50.91-122.91l37.09-37.09h80l9.05 9.05 28.04 28.04c31.4 31.4 25.67 78.23007-2.12 104.07992z" fill="#2f4054"/><path d="m88 360h-16v-26.74707a116.48215 116.48215 0 0 1 34.3418-82.9082l12.00146-12.00147 11.31348 11.31348-12.00147 12.00146a100.5875 100.5875 0 0 0 -29.65527 71.59473z" fill="#262d43"/><path d="m176 333.25v26.75h-16v-26.75a101.76326 101.76326 0 0 0 -2.11-20.71 100.51743 100.51743 0 0 0 -27.55-50.88013l-12-11.99994 11.32-11.31993 12 12a116.61581 116.61581 0 0 1 34.34 82.91z" fill="#262d43"/><rect fill="#ae7d4d" height="24" rx="12" width="112" x="72" y="232"/><path d="m80 208v-16a16 16 0 0 1 16-16 16 16 0 0 1 16 16 16 16 0 0 0 16 16 16 16 0 0 0 16-16 16 16 0 0 1 16-16 16 16 0 0 1 16 16v16a24 24 0 0 1 -24 24h-48a24 24 0 0 1 -24-24z" fill="#2f4054"/><path d="m202.97 397.16992a87.24606 87.24606 0 0 1 -38.44995-43.49c-12.62-30.46-7.73-63.59 12.53-88.62988l28.03995 28.03996c31.4 31.4 25.67 78.23007-2.12 104.07992z" fill="#262d43"/><path d="m176 333.25v26.75h-8.58c-1.04-2.05-2-4.16-2.9-6.32007a91.00847 91.00847 0 0 1 -4.52-13.94993v-6.48a101.76326 101.76326 0 0 0 -2.11-20.71 84.788 84.788 0 0 1 7.37-28.44 116.69757 116.69757 0 0 1 10.74 49.15z" fill="#1a1e38"/><path d="m298.17993 392h-52.35993c-64.14 0-96.27-77.55-50.91-122.91l37.09-37.09h80l13.74 13.74 23.3501 23.35c45.3599 45.36 13.22997 122.91-50.91017 122.91z" fill="#2f4054"/><path d="m232 336h-16v-26.74707a116.48215 116.48215 0 0 1 34.3418-82.9082l12.00146-12.00147 11.31348 11.31348-12.00147 12.00146a100.5875 100.5875 0 0 0 -29.65527 71.59473z" fill="#262d43"/><path d="m320 309.25v26.75h-16v-26.75a100.55719 100.55719 0 0 0 -29.65991-71.59l-12-12 11.31982-11.32 12 12a117.227 117.227 0 0 1 34.34009 82.91z" fill="#262d43"/><rect fill="#ae7d4d" height="24" rx="12" width="112" x="216" y="208"/><path d="m224 184v-16a16 16 0 0 1 16-16 16 16 0 0 1 16 16 16 16 0 0 0 16 16 16 16 0 0 0 16-16 16 16 0 0 1 16-16 16 16 0 0 1 16 16v16a24 24 0 0 1 -24 24h-48a24 24 0 0 1 -24-24z" fill="#2f4054"/><path d="m298.17993 392h-25.28993a88.21411 88.21411 0 0 1 22.71-38.23l21.57995-21.58008a27.92736 27.92736 0 0 1 5.39012-38.07992 39.78661 39.78661 0 0 1 -2.57007-14.11v-16a31.77841 31.77841 0 0 1 5.74-18.26l23.3501 23.35c45.3599 45.36 13.22997 122.91-50.91017 122.91z" fill="#262d43"/><path d="m320 309.25v26.75h-6.63l3.80993-3.81006a27.9064 27.9064 0 0 1 2.19007-35.08994 116.54927 116.54927 0 0 1 .63 12.15z" fill="#1a1e38"/><path d="m461.08831 365.08831-37.08831-37.08831h-80l-37.08831 37.08831c-45.35747 45.35747-13.23346 122.91169 50.91169 122.91169h52.35324c64.14515 0 96.26916-77.55422 50.91169-122.91169z" fill="#2f4054"/><path d="m344 432h-16v-26.74707a116.48215 116.48215 0 0 1 34.3418-82.9082l12.00146-12.00147 11.31348 11.31348-12.00147 12.00146a100.5875 100.5875 0 0 0 -29.65527 71.59473z" fill="#262d43"/><path d="m432 432h-16v-26.74707a100.5875 100.5875 0 0 0 -29.65527-71.59473l-12.00147-12.00146 11.31348-11.31348 12.00146 12.00147a116.48215 116.48215 0 0 1 34.3418 82.9082z" fill="#262d43"/><rect fill="#ae7d4d" height="24" rx="12" width="112" x="328" y="304"/><path d="m336 280v-16a16 16 0 0 1 16-16 16 16 0 0 1 16 16 16 16 0 0 0 16 16 16 16 0 0 0 16-16 16 16 0 0 1 16-16 16 16 0 0 1 16 16v16a24 24 0 0 1 -24 24h-48a24 24 0 0 1 -24-24z" fill="#2f4054"/><path d="m368 456a32.00409 32.00409 0 0 1 -32 32h-280a32 32 0 0 1 0-64c.34 0 .68.02 1.02.03a31.99483 31.99483 0 0 1 39.47-38.8801 48.0007 48.0007 0 0 1 95.51 6.8501h16v40h56a32.001 32.001 0 0 1 63.27-6.79 32.012 32.012 0 0 1 40.73 30.79z" fill="#ae7d4d"/><g fill="#976342"><path d="m87.75 420-10.58 12a31.95594 31.95594 0 0 0 -20.15-7.97 32.11328 32.11328 0 0 1 -.01-16.02 47.94751 47.94751 0 0 1 30.74 11.99z"/><path d="m129.57 391.99-13.85 8.01a32.12985 32.12985 0 0 0 -19.23-14.8501 47.79032 47.79032 0 0 1 4.89-15.23 48.16238 48.16238 0 0 1 28.19 22.0701z"/><path d="m327.27 425.21a32.23474 32.23474 0 0 0 -18.99 14.79l-13.84009-8.02a48.07938 48.07938 0 0 1 25.51009-21.19 31.79479 31.79479 0 0 1 7.32 14.42z"/></g><path d="m272 368v64c0 13.25-17.91 24-40 24s-40-10.75-40-24v-64z" fill="#efbf33"/><ellipse cx="192" cy="324" fill="#efdd9b" rx="24" ry="36"/><ellipse cx="232" cy="368" fill="#e98704" rx="40" ry="24"/><path d="m106.34326 157.65674-8-8a41.988 41.988 0 0 1 0-59.31348 25.97112 25.97112 0 0 0 0-36.68652l11.31348-11.31348a41.988 41.988 0 0 1 0 59.31348 25.97112 25.97112 0 0 0 0 36.68652l8 8z" fill="#efdd9b"/><path d="m80 20.686h16v22.627h-16z" fill="#efbf33" transform="matrix(.707 -.707 .707 .707 3.147 71.598)"/><path d="m200 160h-12a36 36 0 0 1 0-72h44v16h-44a20 20 0 0 0 0 40h12z" fill="#efdd9b"/><path d="m248 88h16v16h-16z" fill="#efbf33"/><path d="m354.34326 157.65674-12-12a36.32468 36.32468 0 0 1 0-51.31348 20.30779 20.30779 0 0 0 0-28.68652l-12-12 11.31348-11.31348 12 12a36.32468 36.32468 0 0 1 0 51.31348 20.30779 20.30779 0 0 0 0 28.68652l12 12z" fill="#efdd9b"/><path d="m312 20.686h16v22.627h-16z" fill="#efbf33" transform="matrix(.707 -.707 .707 .707 71.098 235.647)"/><path d="m459.71582 253.65674-11.31348-11.31348 8-8a25.972 25.972 0 0 0 0-36.68652 41.98847 41.98847 0 0 1 -.00048-59.31348 25.97157 25.97157 0 0 0 .00048-36.68652l11.31348-11.31348a41.9889 41.9889 0 0 1 0 59.31348 25.97156 25.97156 0 0 0 -.00049 36.68652 41.98846 41.98846 0 0 1 .00049 59.31348z" fill="#efdd9b"/><path d="m438.059 68.686h16v22.627h-16z" fill="#efbf33" transform="matrix(.707 -.707 .707 .707 74.079 338.843)"/><path d="m16 480h480v16h-480z" fill="#262d43"/></g></svg>
